<?xml version="1.0" encoding="UTF-8"?>
<svg id="JLR_REGULAR" data-name="JLR REGULAR" xmlns="http://www.w3.org/2000/svg" viewBox="0 0 1206.22 1060.95">
  <defs>
    <style>
      .cls-1 {
        fill: #231f20;
        stroke-width: 0px;
      }
    </style>
  </defs>
  <path class="cls-1" d="M49.61,1060.95c74.53-47.23,123.68-132.76,123.68-225.26L173.24,0h-96.12v831.77c0,34.55-8.01,67.28-24.29,94.54-13.76,21.3-31.86,40.71-52.84,55.01l49.61,79.64Z"/>
  <polygon class="cls-1" points="465.45 803.57 465.45 0 369.33 0 369.33 897.13 907.61 897.13 849.94 803.57 465.45 803.57"/>
  <path class="cls-1" d="M1178.03,247.35C1178.03,108.94,1057.56,0,921.7,0h-260.17v93.56h261.45c91,0,156.36,70.49,156.36,153.79s-65.36,157.64-156.36,157.64h-262.73v93.56h194.8l248.63,398.58h102.53l-249.91-401.14c121.75-15.38,221.72-108.94,221.72-248.63Z"/>
</svg>