<?xml version="1.0" encoding="UTF-8"?>
<!-- Generator: Adobe Illustrator 27.6.1, SVG Export Plug-In . SVG Version: 6.00 Build 0)  -->
<svg version="1.1" id="Layer_1" xmlns="http://www.w3.org/2000/svg" xmlns:xlink="http://www.w3.org/1999/xlink" x="0px" y="0px" viewBox="0 0 138 46" style="enable-background:new 0 0 138 46;" xml:space="preserve">
<style type="text/css">
	.st0{fill:#0073E6;}
	.st1{fill-rule:evenodd;clip-rule:evenodd;fill:#0073E6;}
</style>
<g id="Layer_00000172405586169702717860000011711031187528336813_">
	<path id="Layer" class="st0" d="M137.3,31.8c0,9-8.1,13.5-17.6,13.5c-6.2,0-11.8-1.4-16.4-4c1.2-1.8,3-4.8,3.8-6.7   c3.2,1.3,8.3,2.9,12.9,2.9c4.5,0,8.1-1.9,8.1-4.4c0-2.2-0.8-3.9-8-6.2c-9.2-2.9-14.5-5.8-14.5-13.6c0-8.2,7.6-12.7,17.1-12.7   c4.1,0,9.1,0.9,12.3,1.7l-0.5,11.9l-6.8-0.1l0.1-5.9c-1.1-0.3-2.5-0.4-4.5-0.4c-5.2,0-8.7,1.7-8.7,4.8c0,2.1,2,4.1,9.2,6.4   C133.1,22,137.3,24.8,137.3,31.8L137.3,31.8z"/>
	<path id="Layer_00000157296806802132974230000002905434903831727266_" class="st1" d="M43.3,39.1h3.5v5.4H30.2v-5.4h3.4l-2.1-6   H14.7l-2.2,6h3.7v5.4H0.7v-5.4h3.7L15.9,6.4h-4.6V0.9h18.5L43.3,39.1z M29.1,26.3L23,9.3l-6,17H29.1z"/>
	<path id="Layer_00000166634160939536596060000006218727120758457994_" class="st1" d="M104.7,26.1c0,10.6-8.7,19.2-19.2,19.2   c-5.2,0-9.8-2.1-13.3-5.4c-2.3,2.9-6.6,5.3-11.8,5.3c-6.2,0-12.7-3-12.7-12.2V15h-6.5V8.2h6.5V0.8h8.9v7.4h9.9V15h-9.9v17.1   c0,3.7,2.3,6.2,5.5,6.2c2.3,0,4.8-1.1,6.6-3c-1.5-2.8-2.4-5.9-2.4-9.2c0-8.5,5.5-15.8,13.3-18.3c-1.6,2.4-2.7,7.8-2.7,10.8   c-1.5,2.1-2.5,4.6-2.5,7.5c0,6.5,5,11.8,11.1,11.8c2.2,0,4.3-0.7,6-1.9c-6.9-2.9-11.7-9.8-11.7-17.7c0-4.3,1.4-8.2,3.7-11.4   c0.7-0.1,1.3-0.1,2-0.1c2.7,0,5.2,0.6,7.5,1.5C99.9,11.3,104.7,18.1,104.7,26.1z M96.6,26.1c0-5.5-3.5-10.1-8.1-11.4   c-0.4,1.1-0.6,2.3-0.6,3.6c0,5.4,3.5,10,8.1,11.4C96.4,28.6,96.6,27.4,96.6,26.1z"/>
</g>
</svg>