<?xml version="1.0" encoding="UTF-8"?>
<!-- Created with Inkscape (http://www.inkscape.org/) -->
<svg width="1655.3pt" height="566.16pt" version="1.1" viewBox="0 0 1655.3 566.16" xmlns="http://www.w3.org/2000/svg">
 <g transform="translate(130.67 -385.76)">
  <path d="m507.53 630.43c-28.07 28.08-147.88 154.04-148.83 187.58-0.21 7.28 5.12 13.52 16.35 13.12 16.42-0.59 35.87-15.37 40.36-15.37 1.13 0 2.25 0.56 2.25 1.69 0 5.93-16.28 18.53-20.78 21.33-12.35 8.43-26.15 14.77-40.74 14.04-15.27-0.75-29.39-10.89-30.31-28.84-2.31-45.32 102.52-152.55 143.52-195.8l-1.13-0.56c-80.31 57.28-201.04 143.77-290.33 219.59-5.05 4.49-13.48 11.79-20.78 11.79-3.93 0-6.18-2.8-6.18-6.74 0-22.46 102.21-140.4 119.62-159.49 53.36-60.09 95.9-107.04 145.06-167.3 18.44-22.61 26.09-33.25 20.1-35.09-6.24-1.87-18.29 8.61-40 24.44-134.23 98.84-259.96 190.78-386.32 299.74-59.97 51.39-95.52 88.96-113.15 117.6-4.08 6.63-12.08 19.76-19.61 19.76-6.18 0-7.3-8.37-7.3-13.42 0-14.05 10.06-33.09 17.92-44.32 31.15-44.51 131.31-141.22 259.05-239.49 64.59-49.98 192.14-145.19 192.14-210.9 0-14.82-13.47-27.59-36.06-28.33-106.96-3.54-295.23 108.83-373.86 188.01-3.93 3.93-11.79 12.92-17.41 12.92-2.24 0-2.8-2.81-2.8-4.49 0-21.65 40.5-60.17 72.44-85.37 92.55-73 222.07-140.77 322.92-140.77 31.45 0 71.54 12.17 71.54 52.04 0 32.01-27.17 69.08-47.39 91.54l1.13 0.56c50.54-40.99 117.37-93.39 151.63-93.39 12.35 0 23.38 7.98 23.38 20.89 0 50.64-187.35 224.13-231.72 280.3l1.12 1.12c4.5-4.5 12.36-11.23 17.97-16.29 57.85-53.35 219.57-170.73 252.71-170.73 9.55 0 15.72 5.06 15.72 11.8 0 18.53-38.19 52.79-52.23 66.83zm-562.16 296.52c5.05-15.72 20.22-29.2 37.63-29.2h1538.8v29.2zm682.91-75.81v-28.08c-15.73 19.65-33.14 33.14-60.09 33.14-30.89 0-49.98-22.47-49.98-52.24 0-73 98.28-69.64 110.07-96.03 0-27.51 0-49.98-35.38-49.98-25.27 0-34.82 15.16-34.82 38.75h-37.63c0-42.12 37.07-56.16 73.57-56.16 49.98 0 66.27 25.83 66.27 72.45v138.15zm0-120.18c-15.16 21.34-74.69 19.09-74.69 67.39 0 19.1 11.23 35.94 32.01 35.94 27.52 0 42.68-33.13 42.68-56.72zm186.46-56.17c-38.76 0-47.19 39.32-47.19 70.21v106.14h-32v-153.32c0-14.04-3.37-24.71-19.1-24.71-4.49 0-8.42 0.56-12.91 1.13v-7.31l64.01-29.76v56.16h1.13c8.42-29.2 21.34-52.79 55.6-52.79 1.12 0 2.8 0 3.93 0.56v36.51c-4.49-1.13-8.98-2.82-13.47-2.82zm156.11 21.91c0-23.03-11.23-38.75-35.37-38.75-35.39 0-43.81 40.99-43.81 69.08 0 52.79 26.4 111.75 87.05 111.75 7.86 0 15.72-1.12 23.02-2.8v12.91c-14.6 5.06-29.76 7.31-44.92 7.31-73.01 0-101.09-46.06-101.09-114.01 0-54.48 21.9-101.65 83.11-101.65 32.58 0 71.33 18.53 71.33 56.16zm152.76 159.5c-61.77 0-87.6-51.11-87.6-106.71 0-58.41 20.77-108.95 87.05-108.95 62.89 0 88.17 52.23 88.17 108.39 0 58.41-22.47 107.27-87.62 107.27zm0-198.25c-49.42 0-51.67 55.04-51.67 91.54 0 34.26 7.87 89.29 52.23 89.29 47.18 0 51.67-53.91 51.67-89.29 0-34.82-6.18-91.54-52.23-91.54zm260.58 193.19v-142.65c0-23.02 0.57-46.05-29.2-46.05-31.45 0-59.53 56.16-59.53 83.68v105.02h-32.01l-0.56-152.76c0-13.48-2.81-24.71-18.53-24.71-4.49 0-8.99 0.57-12.92 1.12v-7.3l64.02-29.76v61.78h1.13c10.67-29.77 35.94-58.97 70.2-58.97 37.62 0 49.98 17.97 49.98 53.35v157.25zm102.22 0v-152.76c0-14.6-3.37-25.27-19.66-25.27-3.93 0-8.42 0.56-12.35 1.13v-7.31l64.02-29.76v213.97zm14.6-271.25c-13.48 0-24.15-11.24-24.15-24.72 0-13.47 10.67-24.71 24.15-24.71s23.59 11.8 23.59 24.71c0 13.48-10.11 24.72-23.59 24.72" fill="#15569c"/>
 </g>
</svg>
