<svg xmlns="http://www.w3.org/2000/svg" width="269" height="193">
  <path fill="#532a45" d="M0 192.867h4.594V0H0Zm0 0"/>
  <path d="M264.156 175.523c-.265-4.332-3.418-7.804-7.965-7.804-4.703 0-7.644 3.527-7.91 7.804zm4.387 7.696c-1.23 6.148-5.563 9.41-11.816 9.41-8.82 0-12.993-6.149-13.258-14.54 0-8.339 5.453-14.382 12.992-14.382 9.781 0 12.773 9.145 12.508 15.824H248.28c-.16 4.813 2.567 9.09 8.61 9.09 3.793 0 6.359-1.766 7.16-5.402zm-32.441-9.996c-.696-3.473-3.047-5.504-6.844-5.504-6.574 0-8.606 5.238-8.606 10.797 0 5.132 2.301 10.105 8.07 10.105 4.438 0 7.005-2.512 7.594-6.734h4.653c-1.016 6.785-5.188 10.742-12.188 10.742-8.449 0-12.941-5.828-12.941-14.113 0-8.286 4.277-14.809 13.043-14.809 6.312 0 11.23 2.941 11.922 9.516zm-47.23-8.871h4.276v4.382h.106c1.926-3.422 4.973-5.027 8.984-5.027 7.266 0 9.516 4.172 9.516 10.105v18.176h-4.547v-18.71c0-3.423-2.137-5.56-5.613-5.56-5.504 0-8.18 3.688-8.18 8.66v15.61h-4.543zm-8.548 11.171c-.27-4.332-3.422-7.804-7.965-7.804-4.707 0-7.644 3.527-7.914 7.804zm4.383 7.696c-1.23 6.148-5.559 9.41-11.812 9.41-8.825 0-12.993-6.149-13.262-14.54 0-8.339 5.453-14.382 12.992-14.382 9.781 0 12.777 9.145 12.508 15.824h-20.688c-.16 4.813 2.567 9.09 8.606 9.09 3.797 0 6.363-1.766 7.164-5.402zm-35.71-14.86h-4.653v-4.007h4.652v-4.118c0-4.492 2.672-6.843 7.645-6.843.855 0 2.086.16 2.941.425v3.957c-.8-.265-1.766-.375-2.566-.375-2.192 0-3.473.696-3.473 3.102v3.852h5.344v4.007h-5.344v23.63h-4.547zm-9.993 7.164c-.266-4.332-3.422-7.804-7.965-7.804-4.703 0-7.644 3.527-7.914 7.804zm4.387 7.696c-1.23 6.148-5.563 9.41-11.817 9.41-8.82 0-12.992-6.149-13.258-14.54 0-8.339 5.454-14.382 12.993-14.382 9.78 0 12.773 9.145 12.507 15.824h-20.691c-.16 4.813 2.566 9.09 8.61 9.09 3.796 0 6.359-1.766 7.163-5.402zm-54.282 4.492h8.45c3.472 0 12.828-.961 12.828-15.02 0-9.09-3.367-14.597-12.723-14.597H89.11Zm-5.078-33.895H97.13c11.762 0 18.336 5.934 18.336 18.18 0 12.774-5.613 19.992-18.336 19.992H84.03ZM55.54 168.36h-4.648v-4.007h4.648v-4.118c0-4.492 2.672-6.843 7.645-6.843.855 0 2.086.16 2.941.425v3.957c-.8-.265-1.766-.375-2.566-.375-2.192 0-3.477.696-3.477 3.102v3.852h5.348v4.007h-5.348v23.63h-4.543zm-18.902 20.262c4.758 0 8.605-3.742 8.605-10.426 0-6.68-3.847-10.476-8.605-10.476-4.758 0-8.61 3.797-8.61 10.476 0 6.684 3.852 10.426 8.61 10.426m0-24.914c8.765 0 13.418 6.363 13.418 14.488 0 8.075-4.653 14.434-13.418 14.434-8.766 0-13.418-6.36-13.418-14.434 0-8.125 4.652-14.488 13.418-14.488m152.394-25.539c-2.136 5.344-3.957 7.375-8.02 7.375-1.07 0-2.136-.106-3.152-.48v-4.168c.856.265 1.762.64 2.672.64 1.871 0 2.887-.855 3.742-2.512l1.872-4.703-10.961-27.48h5.132l8.075 22.613h.105l7.754-22.613h4.809zM159.54 106.84h4.274v5.828h.109c2.191-4.492 5.238-6.629 10.156-6.469v4.809c-7.324 0-9.996 4.117-9.996 11.176v12.293h-4.543zm-8.816 0h5.507v4.008h-5.507v17.164c0 2.136.59 2.457 3.422 2.457h2.085v4.008h-3.476c-4.703 0-6.574-.961-6.574-6.04v-17.59h-4.703v-4.007h4.703v-8.285h4.543zm-29.086 18.926c.16 4.062 3.742 5.343 7.43 5.343 2.831 0 6.68-.64 6.68-4.113 0-7.113-18.067-2.3-18.067-12.937 0-5.563 5.453-7.86 10.316-7.86 6.203 0 10.906 1.922 11.336 8.66h-4.547c-.265-3.527-3.473-4.652-6.414-4.652-2.726 0-5.879.75-5.879 3.527 0 3.211 4.809 3.852 9.035 4.813 4.543 1.015 9.032 2.566 9.032 7.86 0 6.628-6.149 8.714-11.758 8.714-6.203 0-11.442-2.512-11.711-9.355zM108.57 106.84h4.543v27.64h-4.543zm4.543-4.973h-4.543V96.31h4.543zm-33.039 4.973h4.278v4.383h.109c1.922-3.422 4.973-5.024 8.98-5.024 7.27 0 9.516 4.168 9.516 10.102v18.176h-4.543v-18.711c0-3.418-2.14-5.559-5.613-5.559-5.508 0-8.18 3.688-8.18 8.66v15.61h-4.547zm-10.101 0h4.547v27.64h-4.547zm4.547-4.973h-4.547V96.31h4.547zM25.57 96.31h6.95l12.027 32.074 12.082-32.074h6.95v38.168h-4.81v-31.754h-.109l-11.922 31.754H42.41l-11.922-31.754h-.105v31.754H25.57zM49.266 2.688a.475.475 0 0 1-.473-.477.475.475 0 1 1 .95 0 .478.478 0 0 1-.477.476m.687-.054c.594.156 1.031.504 1.11.926h.195V.863h-.196c-.078.422-.515.77-1.109.926a.862.862 0 0 0-.266-.266c.157-.593.504-1.03.926-1.109V.223h-2.695v.191c.422.078.77.516.926 1.11-.11.07-.2.16-.262.265-.598-.156-1.035-.504-1.113-.926h-.192V3.56h.192c.078-.422.515-.77 1.113-.926.063.11.152.199.262.265-.157.594-.504 1.032-.926 1.11v.195h.965a.573.573 0 0 0-.121.117 1.925 1.925 0 0 0-1.418 1.856c0 .793.48 1.472 1.168 1.765a1.03 1.03 0 0 1-.297-.726c0-.492.344-.906.805-1.02-.52.024-.98.117-1.317.254a1.44 1.44 0 0 1 .02-.645c.316-.128.738-.214 1.215-.242.004-.503.027-.972.062-1.359h.531c.036.387.059.856.063 1.36.476.027.902.113 1.215.242.03.117.047.242.047.37 0 .094-.008.184-.024.274-.336-.137-.8-.23-1.32-.254.46.114.805.528.805 1.02 0 .285-.11.539-.293.726a1.92 1.92 0 0 0-.254-3.62.575.575 0 0 0-.121-.118h.964v-.195c-.421-.078-.77-.516-.925-1.11.109-.066.199-.156.265-.265m-.687 4.808c.172 0 .332.051.472.133a.593.593 0 1 0-.945 0c.14-.082.3-.133.473-.133m0 1.282a.96.96 0 0 1 .422.101.607.607 0 0 0 .171-.422.593.593 0 1 0-1.011.422.93.93 0 0 1 .418-.101m0 .363a.593.593 0 1 0 0 1.187.593.593 0 0 0 0-1.187m.593 2.082a.593.593 0 1 1-1.187 0 .593.593 0 0 1 1.187 0m0 1.488a.597.597 0 0 1-.593.598.597.597 0 0 1 0-1.191c.328 0 .593.265.593.593m-2.27.606h.735c-.004-1.407-.133-4.035-1.008-5.946a.364.364 0 0 0-.332-.21.359.359 0 0 0-.152.03.367.367 0 0 0-.18.485c.606 1.324.938 3.328.938 5.64m3.351 0c0-2.312.336-4.316.942-5.64a.37.37 0 0 0-.184-.484.345.345 0 0 0-.152-.031.368.368 0 0 0-.332.21c-.871 1.91-1.004 4.54-1.004 5.946zm-13.687.825a.547.547 0 1 0 0 1.094.546.546 0 1 0 0-1.094m.66-1.29a.548.548 0 1 0 .003 1.098.548.548 0 0 0-.003-1.097m.793-1.223a.55.55 0 1 0 .005 1.099.55.55 0 0 0-.005-1.099m.914-1.129a.546.546 0 1 0 0 1.094.547.547 0 1 0 0-1.094m1.024-1.027a.546.546 0 1 0 0 1.094.547.547 0 1 0 0-1.094m1.125-.914a.546.546 0 0 0-.547.547.547.547 0 1 0 1.093 0c0-.301-.242-.547-.546-.547m1.218-.79a.547.547 0 0 0-.547.552.55.55 0 1 0 .547-.55m1.297-.646a.547.547 0 0 0-.547.551.546.546 0 1 0 1.094 0 .55.55 0 0 0-.547-.55m1.914.054a.552.552 0 0 1-1.101 0 .55.55 0 0 1 .55-.547c.301 0 .551.242.551.547m15.082 6.96a.547.547 0 1 0 0 1.094.546.546 0 1 0 0-1.093m-.664-1.29a.546.546 0 0 0-.547.548.547.547 0 1 0 1.094 0c0-.301-.242-.547-.547-.547m-.793-1.223a.547.547 0 0 0-.547.551.546.546 0 1 0 1.094 0 .547.547 0 0 0-.547-.55m-.914-1.13a.546.546 0 1 0 0 1.094.547.547 0 1 0 0-1.094m-1.023-1.027a.546.546 0 1 0 0 1.094.547.547 0 1 0 0-1.094m-1.125-.914a.548.548 0 1 0 .003 1.097.548.548 0 0 0-.003-1.097m-1.219-.79a.55.55 0 1 0 .005 1.1.55.55 0 0 0-.005-1.1m-1.297-.644a.55.55 0 1 0 .005 1.099.55.55 0 0 0-.005-1.099m-.812.055a.55.55 0 0 1-1.098 0c0-.305.246-.547.547-.547.304 0 .55.242.55.547m-13.94 7.52c1.542-2.797 4.116-4.872 7.16-5.637a8.317 8.317 0 0 0-.231-.742c-3.469.894-6.352 3.382-7.926 6.699zm12.386-5.637c3.047.765 5.617 2.84 7.16 5.637l.996.32c-1.574-3.317-4.457-5.805-7.926-6.7-.082.231-.16.481-.23.743M40 15.074c.121-.289.504-1.219 1.297-1.773.781-.543 1.523-.637 2.172-.696.601-.054.984-.246 1.402-.906.422-.656 1.195-1.011 1.977-1.011.359 0 .422.32.011.316-.457-.008-1.316.223-1.707.984-.297.578-.418 1.13-1.715 1.082-.917-.035-2.433.106-3.21 2.172-.102.281-.407.258-.227-.168m18.531 0c-.12-.289-.5-1.219-1.297-1.773-.78-.543-1.523-.637-2.172-.696-.597-.054-.98-.246-1.402-.906-.418-.656-1.195-1.011-1.976-1.011-.36 0-.422.32-.012.316.46-.008 1.32.223 1.707.984.297.578.418 1.13 1.715 1.082.918-.035 2.437.106 3.21 2.172.106.281.407.258.227-.168m2.106 3.309c-.106.324-.426.512-.715.418-.29-.094-.442-.434-.336-.758.105-.324.43-.516.719-.418.289.094.437.434.332.758m-1.262 4.574-1.297.824-1.254-1.539 1.867-.664zm-3.75-1.039c-.117.605-.914.96-1.777.793-.864-.164-1.47-.79-1.352-1.398.117-.602.91-.958 1.774-.793.863.168 1.468.792 1.355 1.398m-6.36.621-2-1.41 2-1.41 1.997 1.406zm0-6.82a.62.62 0 1 1 .002 1.24.62.62 0 0 1-.001-1.24m-4.582 6.992c-.864.168-1.66-.188-1.774-.793-.117-.606.488-1.23 1.352-1.398.863-.165 1.66.19 1.773.792.117.61-.488 1.235-1.351 1.399m-4.23 1.07-1.298-.824.684-1.379 1.867.664zm-1.845-4.98c-.289.093-.609-.094-.714-.418-.106-.324.043-.664.335-.758.29-.098.61.094.715.418.106.324-.043.664-.336.758m20.649-3.586-.047.18c.582.421.832 1.078.715 1.855a.94.94 0 0 0-.461.27c-.512-.356-.79-.922-.723-1.438l-.183-.05-.922 3.054.148.043a1.676 1.676 0 0 1 1.402-.719c.016.086.036.172.07.25.02.043.044.082.071.117-.559 1.008-1.148 1.536-2.348 1.32-1.433-.257-1.796-1.46-1.468-2.097.238-.465.488-.523.765-.426.278.098.446.492.203 1.078.536-.105 1.094-.816 1.153-1.445.062-.633-.48-1.062-.934-1.105-.43-.043-.82.097-1.176.55.606-1.246.782-2.023.094-3.047-.934.583-1.148 1.407-.96 2.942-.427-1.356-1.579-1.43-2.083-.606-.504.825.121 1.805.477 2.133-.176-.636.086-1.12.668-.996.578.125.586 1.336-.16 1.961-.75.621-1.887.52-2.633-.031-.621-.461-.887-.969-1.04-1.895.09-.07.169-.16.231-.257.809.156 1.406.675 1.492 1.308l.176.004.117-3.492s-.199-.008-.215-.012c-.125.61-.714 1.14-1.5 1.285-.07-.164-.183-.3-.324-.406.188-.855.735-1.488 1.418-1.605v-.203H47.25v.203c.684.117 1.234.75 1.422 1.605a.94.94 0 0 0-.324.406c-.786-.144-1.375-.675-1.504-1.285a4.891 4.891 0 0 1-.215.012l.117 3.492.176-.004c.086-.633.683-1.152 1.496-1.308a.953.953 0 0 0 .227.257c-.149.926-.418 1.434-1.04 1.895-.742.55-1.882.652-2.632.031-.746-.625-.739-1.836-.157-1.96.579-.126.84.359.668.995.352-.328.98-1.308.473-2.133-.504-.824-1.656-.75-2.082.606.187-1.535-.027-2.36-.96-2.942-.688 1.024-.513 1.801.097 3.047-.36-.453-.75-.593-1.18-.55-.453.043-.996.472-.934 1.105.063.629.622 1.34 1.157 1.445-.246-.586-.078-.98.199-1.078.277-.097.527-.039.77.426.328.637-.036 1.84-1.473 2.098-1.195.215-1.79-.313-2.344-1.32a.837.837 0 0 0 .137-.368c.594 0 1.094.274 1.406.719l.145-.043-.922-3.055-.18.051c.062.516-.21 1.082-.727 1.438a.94.94 0 0 0-.46-.27c-.118-.777.132-1.434.714-1.855l-.047-.18-2.753.879.043.144c.421.063.761.184 1.246 1.2a.907.907 0 0 0-.243.324c-.101.23-.113.492-.03.738.136.422.507.703.921.703h.04c.226.68.487 1.516.788 2.55l-.504 1.017-.168.34.317.202.965.614c.074.265.207 1.004.257.988 2.196-.707 6.301-1.648 9.926-1.648 3.645.066 7.043 1.414 8.18 1.875-.008-.036.328-1.032.379-1.215l.965-.614.316-.203-.168-.34-.5-1.015c.3-1.035.559-1.871.79-2.55h.034c.418 0 .79-.282.926-.704a1.044 1.044 0 0 0-.035-.738.907.907 0 0 0-.242-.325c.484-1.015.824-1.136 1.25-1.199l.039-.144zm-.137 27.254c-1.516.093-3.016.504-4.332 1.004a20.69 20.69 0 0 0-1.648.707c-.121.058-.243.117-.36.175-.12.06-.238.122-.351.18a23.04 23.04 0 0 0-1.95 1.137l.165.055.035.011c.273.09 2.023.657 2.66.797.09.02.195.043.312.067 1.09.222 1.946.437 2.239.976a.675.675 0 0 1 .074.176c.117.082.246.187.363.316.73-.168 1.242-.402 1.668-.668.106-.066.207-.136.305-.207.094-.07.191-.14.281-.21.613-.477 1.176-1.005 2.27-1.442 3.316-1.336 8.78-1.984 8.78-1.984s-4.933-1.13-9.218-1.13c-.441 0-.875.012-1.293.04m-19.77 4.82c.114.066.223.129.337.191.113.06.226.122.343.18.375.188.774.36 1.215.504 1.027.34 2.04.45 2.86.469.093.004.18.004.265.004.145 0 .277-.004.406-.008.305-.012.567-.031.758-.055.25-.027.395-.05.395-.05l.304 1.413-2.136 2.891s.847 1.523 4.246 1.762c.289.02.597.03.922.03.328 0 .636-.01.922-.034 3.378-.239 4.12-1.758 4.12-1.758l-2.675-2.34.492-1.281c-.008 0-.016 0-.02-.004a1.804 1.804 0 0 0-.304-.027c-.285 0-.555.058-.688.09-.066.011-.097.019-.14.019h-.043l-.043-.008-.188-.055c.035-.023.102-.062.184-.113.093-.059.215-.13.344-.195.32-.165.71-.313.984-.258.066.011.129.023.184.043.175.047.312.11.46.172.18.074.38.148.68.207.027.008.055.011.082.015.211.035.328.051.414.055.18.004.215-.035.625-.023.059.004.121.004.192.011.847.043.828.434.828.434.078-.047.14-.094.191-.14.274-.235.313-.466.25-.665a.945.945 0 0 0-.176-.293 1.811 1.811 0 0 0-.32-.273c-.113-.082-.203-.125-.203-.125.215-.57-1.453-.824-2.2-.992-.452-.102-1.476-.56-2.21-.903-.246-.113-.457-.219-.606-.289l-.043-.02c-.097-.046-.156-.077-.172-.081v-.004h-.004a2.033 2.033 0 0 0-.684-.125c-.136 0-.269.02-.386.043-.223.05-.39.12-.39.12s-.098-.187-.38-.472a2.244 2.244 0 0 0-.167-.164 6.621 6.621 0 0 0-1.446-.977 10.357 10.357 0 0 0-.36-.175c-.116-.055-.241-.114-.374-.168-.215-.09-.445-.18-.695-.266-.422-.148-.899-.289-1.426-.422-.34-.082-.7-.16-1.086-.234a27.048 27.048 0 0 0-2.824-.363 35.971 35.971 0 0 0-2.73-.11c-5.555 0-8.333 1.414-8.333 1.414s2.727.414 5.649 1.16c2.304.594 3.496 1.489 4.8 2.243m28.422 5.496H67.625a.75.75 0 0 0-.195-.16.979.979 0 0 0-.41-.121l-.047-.07a.754.754 0 0 0-.243-.207.782.782 0 0 0-.269-.102c-.047-.012-.094-.016-.137-.02-.011-.023-.031-.046-.047-.07a.902.902 0 0 0-.516-.313.734.734 0 0 0-.128-.011.756.756 0 0 0-.29-.285 1.081 1.081 0 0 0-.277-.102c-.047-.008-.09-.015-.129-.015-.015-.024-.03-.051-.05-.074a.82.82 0 0 0-.246-.207.914.914 0 0 0-.278-.102.611.611 0 0 0-.117-.012c-.016-.027-.035-.05-.055-.078a.762.762 0 0 0-.242-.207.989.989 0 0 0-.285-.098c-.035-.011-.074-.011-.113-.015-.016-.024-.031-.051-.051-.078a.866.866 0 0 0-.242-.207 1.022 1.022 0 0 0-.278-.098.651.651 0 0 0-.12-.012c-.016-.027-.036-.054-.055-.082a.767.767 0 0 0-.247-.207.928.928 0 0 0-.394-.11c-.004-.003-.004-.007-.004-.007l.789-1.477c.133-.25.156-.531.07-.8a1.005 1.005 0 0 0-.5-.606 1.032 1.032 0 0 0-1.406.426 1.03 1.03 0 0 0 .23 1.265l-.25.473c-.058-.031-.128-.066-.206-.11l-2.243-1.152a5.577 5.577 0 0 1-1.98.91 1.1 1.1 0 0 1 .035.231c.016.227-.043.531-.32.836l3.347 1.844-.082.156-.175.328a1.04 1.04 0 1 0 .656 1.492l.383-.715.355-.672a.85.85 0 0 0 .297.102c.035.008.066.008.102.008h.043a.725.725 0 0 0 .214.207.996.996 0 0 0 .355.137c.036.004.067.008.102.008.012 0 .028 0 .043-.004a.726.726 0 0 0 .215.207 1.033 1.033 0 0 0 .352.137c.035.004.07.008.105.008h.04a.886.886 0 0 0 .21.207c.043.027.094.05.145.07.07.031.144.055.21.066.04.004.075.008.106.008h.043a.82.82 0 0 0 .356.278c.074.03.144.05.215.062.035.008.07.008.105.008h.043a.8.8 0 0 0 .352.277c.074.032.144.055.21.067.04.004.075.008.11.008.012 0 .023 0 .04-.004.05.082.124.152.206.207.047.027.094.055.149.078.07.027.14.05.207.062.039.008.074.012.109.012.016 0 .027-.004.043-.004a.805.805 0 0 0 .352.278 1.3 1.3 0 0 0 .21.066c.04.004.079.008.11.008h.043a.858.858 0 0 0 .21.2c.005.003.009.007.012.007.243.379.649.621 1.098.64.027.005.05.005.074.005a1.389 1.389 0 0 0 .075-2.774m-33.22-15.724c.298.31.688.668.977.899.59.473 1.528 1.098 2.176 1.453l5.3 2.922c1.438.273 2.68.66 3.72 1.156.12.059.238.117.351.18.117.058.23.121.34.183l.012.012c.37.215.672.426.918.621.27.223.472.426.62.594.157-.035.34-.062.532-.062.246 0 .484.046.664.093a21.977 21.977 0 0 1 1.57-.937 191.37 191.37 0 0 0-1.547-.793l-.921-.477c-.118-.062-.235-.12-.348-.18a14.945 14.945 0 0 0-.352-.18l-.218-.112c-4.934-2.54-9.305-4.782-9.614-4.946-.66-.336-1.699-.765-2.422-.996a11.58 11.58 0 0 0-1.289-.308 9.327 9.327 0 0 0-.824-.11l-.523-.047.328.41c.008.016.238.301.55.625m4.77 17.02c.172 0 .34-.043.489-.121.246-.129.421-.344.503-.61.086-.265.059-.55-.074-.796a1.035 1.035 0 0 0-1.18-.516l-.207-.387-.05-.097 4.265-2.348a10.28 10.28 0 0 1-2.02-.434 10.2 10.2 0 0 1-1.71-.753l-1.692.867-.207.11-.25-.474c.137-.12.243-.28.301-.468a1.03 1.03 0 0 0-.074-.797 1.03 1.03 0 0 0-.914-.547c-.172 0-.34.039-.488.121a1.022 1.022 0 0 0-.504.605c-.086.27-.059.551.074.801l.785 1.477-.004.008a.948.948 0 0 0-.395.11.755.755 0 0 0-.296.288.645.645 0 0 0-.121.012.975.975 0 0 0-.278.098.83.83 0 0 0-.246.207c-.02.027-.039.054-.05.078-.04.004-.075.004-.114.015a.926.926 0 0 0-.281.098.776.776 0 0 0-.246.207l-.055.078a.67.67 0 0 0-.117.012.914.914 0 0 0-.278.101.762.762 0 0 0-.293.282c-.043 0-.085.008-.132.015-.09.02-.188.055-.274.102a.821.821 0 0 0-.242.21.298.298 0 0 0-.047.075.774.774 0 0 0-.133.012.815.815 0 0 0-.512.313.794.794 0 0 0-.05.07c-.043.004-.09.008-.133.019a.994.994 0 0 0-.273.098.763.763 0 0 0-.239.21.794.794 0 0 0-.05.071 1.027 1.027 0 0 0-.41.121.75.75 0 0 0-.196.16H30.758c-.368.02-.707.184-.957.457a1.412 1.412 0 0 0-.356 1.004c.04.735.649 1.313 1.387 1.313.023 0 .047 0 .074-.004a1.38 1.38 0 0 0 1.098-.641c.004-.004.008-.004.011-.008a.794.794 0 0 0 .211-.2h.043c.036 0 .07-.003.11-.007a1.3 1.3 0 0 0 .21-.067.799.799 0 0 0 .352-.277h.043c.035 0 .074 0 .114-.008.062-.012.132-.035.207-.062.05-.024.097-.051.144-.079a.698.698 0 0 0 .207-.207c.016.004.027.004.04.004a.804.804 0 0 0 .32-.074.821.821 0 0 0 .355-.277.13.13 0 0 0 .04.004c.034 0 .07-.004.108-.012a.804.804 0 0 0 .211-.062c.051-.024.098-.047.141-.074a.765.765 0 0 0 .215-.204h.043c.031 0 .07-.004.105-.008a.938.938 0 0 0 .211-.066.56.56 0 0 0 .145-.074.749.749 0 0 0 .21-.203h.04c.035 0 .07-.004.105-.008a.839.839 0 0 0 .215-.067.793.793 0 0 0 .355-.277h.044c.03 0 .066 0 .097-.004.07-.012.145-.035.223-.066a.865.865 0 0 0 .133-.07.74.74 0 0 0 .219-.208h.043c.03 0 .062 0 .097-.008a.88.88 0 0 0 .223-.062c.023-.012.05-.024.074-.04l.36.672.378.715c.184.34.536.551.918.551m10.64-11.534c.075.039.15.074.223.113.747.383 1.497.774 2.239 1.152a23.428 23.428 0 0 1 2.113-.933c3.398-1.875 6.055-3.34 6.285-3.465a17.95 17.95 0 0 0 2.18-1.457c.285-.227.676-.586.973-.895.312-.324.543-.609.55-.62l.332-.415-.527.043c-.016.004-.379.036-.82.114-.422.074-.942.199-1.29.312-.726.227-1.765.652-2.421.992-.313.164-4.68 2.407-9.613 4.942l-.223.117m-2.035-9.574a1.882 1.882 0 0 1-.555-1.34c0-.508.195-.98.555-1.336a1.87 1.87 0 0 1 1.336-.559c.507 0 .984.2 1.34.559.359.355.554.828.554 1.336a1.882 1.882 0 0 1-.972 1.652v-.027a.921.921 0 1 0-1.844 0v.027a1.86 1.86 0 0 1-.414-.312m.414 4.738v4.004c.304.156.613.312.922.472.308-.16.617-.32.922-.476v-4h2.511l6.762-1.04v-1.577h-9.273v-.492a3.105 3.105 0 0 0 2.187-2.97 3.11 3.11 0 1 0-4.031 2.969v.493h-9.27v1.578l6.758 1.039zm9.43 22.121c.003 0 .007.004.011.004.008.004.016.008.02.008.008.004.011.004.015.008-.015-.008-.031-.012-.047-.02m-.078-.03c.008.003.016.003.024.007s.015.008.023.008c.004.004.004.004.008.004-.02-.004-.035-.011-.055-.02m-1.156-.378h.004s.004 0 .004.004h.004c-.004 0-.008-.004-.012-.004m-14.554.004h.004v-.004h.008c-.004 0-.008.004-.012.004m-1.187.39.019-.007c.008-.004.016-.004.023-.008-.011.004-.027.008-.043.015m-.082.035c.004-.004.008-.004.012-.008.008 0 .016-.004.02-.004.008-.004.011-.008.015-.008-.015.008-.031.012-.047.02m18.496-3.555c-.25-.648-.488-1.3-.488-1.3s-1.012.667-1.52.976c-.507.309-1.34.812-1.937 1.504-.594.683-1.066 1.754-1.066 1.754s.199-.024.53-.024c.31 0 .731.02 1.216.098.023 0 .047.004.07.012.074.011.149.023.223.039.023.004.05.008.074.015h.004c.023.004.047.012.07.016h.008c.004.004.004.004.008.004 0 0-.172 1.66-1.601 3.258-.309.34-.957.84-1.375 1.12a6.364 6.364 0 0 1-.801.458 2.458 2.458 0 0 1-.293.016c-1.184 0-2.145-.864-2.145-1.934v-7.078c-.296.02-.601.027-.921.027-.317 0-.622-.008-.918-.027v7.078c0 1.07-.961 1.934-2.145 1.934-.098 0-.195-.004-.293-.016a6.363 6.363 0 0 1-.8-.457c-.313-.211-.755-.547-1.09-.844a3.94 3.94 0 0 1-.286-.277c-1.433-1.598-1.601-3.258-1.601-3.258.004 0 .004-.004.008-.004h.004c.023-.004.05-.012.074-.016h.004a.399.399 0 0 1 .074-.015c.074-.016.149-.027.219-.04h.004a.216.216 0 0 1 .07-.011c.485-.078.91-.098 1.215-.098.332 0 .531.024.531.024s-.472-1.07-1.066-1.754c-.602-.692-1.43-1.195-1.938-1.504a71.95 71.95 0 0 1-1.523-.977s-.23.653-.488 1.301c-.25.652-.668 1.27-.832 2.496-.16 1.23.128 2.176.128 2.176s.668-.473 1.68-.937l.059-.024c.02-.012.039-.02.058-.027.004 0 .004 0 .008-.004l.055-.024s.004-.004.008-.004l.055-.023c.004 0 .004-.004.008-.004.02-.008.035-.016.054-.023.004 0 .008-.004.012-.004a.561.561 0 0 1 .051-.024l.016-.004.023-.011c.047.257.508 2.695 1.668 4.113 0 .004.004.004.004.008.016.02.035.039.05.058.106.125.216.239.333.344.394.352 1.066.895 1.879 1.461.93.645 2.027 1.332 2.863 1.945 1.168.868 1.766 1.543 1.766 1.543s.601-.675 1.773-1.543c.832-.613 1.93-1.3 2.86-1.945a20.536 20.536 0 0 0 1.874-1.46c.047-.04.09-.083.137-.126.004-.004.004-.008.004-.008.086-.086.168-.176.246-.27.004-.007.012-.015.016-.019.039-.047.074-.094.11-.144.093-.121.179-.254.26-.387.056-.086.106-.172.153-.258.157-.277.29-.57.41-.86.004-.011.012-.023.016-.034.145-.356.266-.704.363-1.028 0-.004.004-.012.004-.015.094-.297.16-.57.215-.793.07-.301.113-.516.125-.582.008.004.016.004.024.008a.561.561 0 0 0 .066.031c.004 0 .008.004.012.004.02.008.035.016.05.023l.016.004a.561.561 0 0 0 .059.028c.02.008.039.015.055.023a.377.377 0 0 1 .063.031h.003c.024.008.04.016.059.024 1.012.465 1.68.937 1.68.937s.289-.945.125-2.175c-.16-1.227-.579-1.844-.833-2.497m-2.666 3.125h-.008c.004 0 .008 0 .012.004l-.004-.004M38.16 47.906l.52-.27c-.117-.07-.235-.14-.356-.214-.074-.043-.148-.09-.222-.133.058.2.078.41.058.617m2.637 11.91c.015-.004.027-.011.043-.015-.008.004-.016.004-.024.008l-.019.008m-.067.027c-.004.004-.011.004-.015.008a.225.225 0 0 1 .047-.02c-.004 0-.008.004-.016.004a.03.03 0 0 1-.015.008m17.011-.028c-.012 0-.015-.004-.023-.008s-.016-.004-.024-.008l.055.024c-.004-.004-.008-.004-.008-.008m-15.754-.394s-.004 0-.004.004c.004-.004.008-.004.012-.004h-.008m15.817.422a.029.029 0 0 1-.016-.008c-.008 0-.012-.004-.016-.004a.248.248 0 0 1 .047.02c-.004-.005-.011-.005-.015-.009m2.773-34.206s-.543 1.5.024 2.828c.57 1.328 2.03 1.976 2.03 1.976s.54-1.504-.027-2.832c-.566-1.328-2.027-1.972-2.027-1.972m4.57 6.937s.754-1.41.383-2.805c-.367-1.394-1.718-2.25-1.718-2.25s-.754 1.41-.383 2.809c.367 1.39 1.718 2.246 1.718 2.246m2.184 2.477s.95-1.29.785-2.723c-.164-1.434-1.375-2.473-1.375-2.473s-.949 1.286-.789 2.72c.164 1.433 1.379 2.476 1.379 2.476m1.797 2.765s1.125-1.136 1.176-2.578c.047-1.445-1.004-2.648-1.004-2.648s-1.13 1.133-1.172 2.578c-.047 1.441 1 2.648 1 2.648m1.383 2.996s1.277-.957 1.531-2.379c.258-1.421-.61-2.765-.61-2.765s-1.277.957-1.53 2.379c-.258 1.422.609 2.765.609 2.765m.926 3.164s1.406-.761 1.867-2.128c.457-1.372-.203-2.825-.203-2.825s-1.407.762-1.864 2.133c-.457 1.367.2 2.82.2 2.82m.671.446c-.652 1.289-.21 2.824-.21 2.824s1.5-.55 2.152-1.84c.652-1.285.21-2.824.21-2.824s-1.5.55-2.152 1.84m.391 3.36c-.832 1.179-.621 2.76-.621 2.76s1.566-.327 2.398-1.503c.832-1.18.618-2.766.618-2.766s-1.563.328-2.395 1.508m-.102 3.383c-.996 1.047-1.015 2.644-1.015 2.644s1.597-.097 2.59-1.144c.996-1.047 1.015-2.645 1.015-2.645s-1.597.098-2.59 1.145m-.593 3.328c-1.137.89-1.387 2.469-1.387 2.469s1.594.137 2.73-.754c1.137-.89 1.383-2.469 1.383-2.469s-1.59-.137-2.726.754m-1.07 3.211c-1.25.715-1.727 2.242-1.727 2.242s1.554.363 2.808-.351c1.254-.72 1.727-2.246 1.727-2.246s-1.555-.364-2.809.355m-1.523 3.02c-1.344.527-2.035 1.968-2.035 1.968s1.488.586 2.832.059c1.344-.527 2.035-1.969 2.035-1.969s-1.484-.586-2.832-.058m-1.941 2.765c-1.407.328-2.301 1.653-2.301 1.653s1.386.796 2.793.468c1.406-.328 2.297-1.652 2.297-1.652s-1.383-.793-2.79-.469m-2.328 2.457c-1.437.117-2.515 1.301-2.515 1.301s1.258.988 2.695.867c1.438-.117 2.516-1.3 2.516-1.3s-1.254-.989-2.696-.868m-2.656 2.094c-1.441-.094-2.676.918-2.676.918s1.098 1.164 2.54 1.254c1.44.09 2.675-.922 2.675-.922s-1.097-1.16-2.539-1.25m-2.933 1.684c-1.415-.301-2.782.523-2.782.523s.918 1.309 2.332 1.605c1.41.301 2.782-.523 2.782-.523s-.918-1.309-2.332-1.605m-3.149 1.242c-1.351-.5-2.828.113-2.828.113s.723 1.426 2.074 1.926c1.356.504 2.832-.113 2.832-.113s-.722-1.426-2.078-1.926m-3.293.77c-1.265-.692-2.812-.298-2.812-.298s.504 1.516 1.77 2.207c1.269.692 2.816.301 2.816.301s-.504-1.52-1.774-2.21m-14.98-43.27c.566-1.324.027-2.832.027-2.832s-1.461.648-2.031 1.976c-.567 1.328-.028 2.832-.028 2.832s1.461-.648 2.032-1.976m-2.828 1.86c.37-1.395-.383-2.806-.383-2.806s-1.352.852-1.719 2.25c-.371 1.395.383 2.805.383 2.805s1.351-.855 1.719-2.25m-2.524 2.25c.164-1.433-.785-2.719-.785-2.719s-1.215 1.04-1.379 2.473c-.164 1.434.785 2.723.785 2.723s1.215-1.043 1.38-2.477m-3.177 5.242s1.051-1.207 1.004-2.648c-.047-1.445-1.176-2.578-1.176-2.578s-1.046 1.203-1.003 2.648c.05 1.442 1.175 2.578 1.175 2.578m-1.379 2.996s.864-1.343.61-2.765c-.258-1.422-1.535-2.38-1.535-2.38s-.864 1.345-.61 2.766c.254 1.422 1.535 2.38 1.535 2.38m-.93 3.163s.66-1.453.2-2.82c-.457-1.371-1.863-2.133-1.863-2.133s-.657 1.453-.2 2.825c.461 1.367 1.864 2.128 1.864 2.128m-.461 3.27s.441-1.535-.211-2.824c-.652-1.29-2.152-1.84-2.152-1.84s-.442 1.539.21 2.824c.653 1.29 2.153 1.84 2.153 1.84m.02 3.297s.214-1.582-.622-2.762c-.828-1.18-2.394-1.508-2.394-1.508s-.215 1.586.617 2.766c.832 1.176 2.398 1.504 2.398 1.504m.496 3.265s-.02-1.597-1.011-2.644c-.996-1.047-2.59-1.145-2.59-1.145s.015 1.598 1.012 2.645c.996 1.047 2.59 1.144 2.59 1.144m-1.762 2.399c1.132.89 2.726.754 2.726.754s-.25-1.578-1.383-2.469c-1.136-.89-2.73-.754-2.73-.754s.25 1.578 1.387 2.469m4.136 3.738s-.472-1.527-1.726-2.242c-1.254-.715-2.809-.355-2.809-.355s.477 1.527 1.727 2.246c1.254.714 2.808.351 2.808.351m1.832 2.742s-.691-1.437-2.035-1.964c-1.343-.528-2.832.058-2.832.058s.692 1.442 2.035 1.969c1.344.527 2.832-.063 2.832-.063m2.207 2.454s-.89-1.325-2.296-1.653c-1.407-.324-2.793.469-2.793.469s.894 1.324 2.3 1.652c1.407.328 2.79-.468 2.79-.468m.027.804c-1.438-.12-2.696.867-2.696.867s1.079 1.184 2.516 1.301c1.438.121 2.695-.867 2.695-.867s-1.074-1.184-2.515-1.3m5.336 3.01s-1.239-1.01-2.68-.917c-1.437.086-2.539 1.25-2.539 1.25s1.238 1.012 2.68.922c1.437-.094 2.539-1.254 2.539-1.254m3.039 1.289s-1.371-.824-2.785-.523c-1.414.296-2.332 1.605-2.332 1.605s1.37.824 2.785.523c1.41-.296 2.332-1.605 2.332-1.605m3.191.832s-1.476-.613-2.828-.113c-1.355.5-2.074 1.926-2.074 1.926s1.472.617 2.828.113c1.355-.5 2.074-1.926 2.074-1.926m.465.656c-1.27.692-1.773 2.211-1.773 2.211s1.55.39 2.816-.3c1.266-.692 1.773-2.208 1.773-2.208s-1.55-.394-2.816.297m2.578 2.332c0 1.446 1.09 2.614 1.09 2.614s1.086-1.168 1.086-2.614c0-1.441-1.086-2.613-1.086-2.613s-1.09 1.172-1.09 2.613m1.067-46.62c11.777 0 21.324 9.546 21.324 21.323 0 11.778-9.547 21.32-21.324 21.32-11.778 0-21.32-9.542-21.32-21.32 0-1.59.175-3.14.503-4.632l.035-.157c.004-.015.004-.03.012-.047.012-.066.031-.136.047-.203 2.266-9.343 10.684-16.285 20.723-16.285M29.043 40.226a21.794 21.794 0 0 0-1.727 8.543c0 2.961.582 5.836 1.727 8.543a21.878 21.878 0 0 0 4.703 6.977 21.878 21.878 0 0 0 15.52 6.426 21.878 21.878 0 0 0 15.52-6.426 21.878 21.878 0 0 0 6.429-15.52c0-2.964-.582-5.84-1.727-8.543a21.835 21.835 0 0 0-4.703-6.976 21.814 21.814 0 0 0-6.976-4.703 21.808 21.808 0 0 0-8.543-1.727c-2.965 0-5.836.582-8.543 1.727a21.814 21.814 0 0 0-6.977 4.703 21.835 21.835 0 0 0-4.703 6.976M49.3 24.113c-3.168 0-6.254.594-9.176 1.766-.05.023-.102.039-.149.062-.008.004-.015.004-.019.008-.047.016-.09.04-.133.063a1.014 1.014 0 0 0 .903 1.812 22.482 22.482 0 0 1 8.574-1.683c2.965 0 5.847.566 8.574 1.683a1.013 1.013 0 0 0 1.324-.555 1.02 1.02 0 0 0-.555-1.32l-.019-.008c-.05-.02-.102-.039-.148-.062a24.533 24.533 0 0 0-9.176-1.766"/>
</svg>
